<?xml version="1.0" standalone="no"?>
<!DOCTYPE svg PUBLIC "-//W3C//DTD SVG 20010904//EN"
 "http://www.w3.org/TR/2001/REC-SVG-20010904/DTD/svg10.dtd">
<svg version="1.0"  xmlns="http://www.w3.org/2000/svg"
 width="90.000000pt" height="900.000000pt" viewBox="0 0 900.000000 900.000000"
 preserveAspectRatio="xMidYMid meet">
<metadata>
Created by potrace 1.10, written by Peter Selinger 2001-2011
</metadata>
<g transform="translate(0.000000,900.000000) scale(0.100000,-0.100000)"
fill="white" stroke="none">
<path d="M4265 7828 c-66 -4 -157 -15 -202 -23 -45 -8 -94 -15 -108 -15 -42 0
-264 -54 -440 -107 -84 -26 -205 -71 -305 -115 -122 -53 -382 -189 -411 -214
-8 -8 -18 -14 -22 -14 -17 0 -322 -215 -367 -259 -8 -9 -44 -38 -78 -66 -83
-66 -323 -311 -397 -405 -33 -41 -63 -76 -67 -78 -4 -2 -17 -20 -30 -40 -12
-20 -47 -71 -78 -112 -58 -77 -120 -168 -120 -175 0 -2 -12 -23 -27 -47 -41
-64 -48 -76 -92 -160 -22 -42 -44 -85 -50 -95 -5 -10 -23 -49 -41 -88 -17 -38
-38 -83 -46 -98 -8 -16 -14 -36 -14 -46 0 -9 -5 -22 -11 -28 -6 -6 -14 -26
-19 -44 -5 -19 -20 -68 -35 -109 -75 -217 -129 -450 -155 -675 -19 -159 -24
-457 -11 -575 7 -58 16 -143 21 -190 4 -47 13 -105 19 -130 5 -25 17 -81 26
-125 19 -91 41 -182 60 -240 7 -22 22 -74 35 -115 13 -41 27 -79 31 -85 5 -5
9 -18 9 -28 0 -10 6 -31 14 -45 8 -15 22 -47 31 -72 54 -140 172 -372 246
-484 22 -32 39 -60 39 -63 0 -3 14 -22 30 -43 17 -21 30 -41 30 -44 0 -7 144
-200 165 -222 5 -6 35 -41 65 -77 65 -79 280 -292 365 -362 33 -28 62 -53 65
-56 18 -20 253 -189 312 -224 9 -5 48 -29 85 -51 122 -75 241 -137 358 -189
33 -14 74 -32 90 -39 67 -30 233 -90 290 -106 17 -5 44 -13 60 -18 67 -23 219
-62 285 -72 25 -4 72 -12 105 -18 227 -43 666 -57 850 -27 50 8 106 15 125 15
19 0 69 7 110 15 41 9 109 23 150 32 72 15 142 33 205 55 17 5 47 13 68 18 21
4 44 13 50 19 6 6 19 11 29 11 9 0 34 7 55 16 21 9 54 23 73 31 213 91 433
200 480 238 8 6 22 15 30 19 53 24 283 185 401 280 95 77 389 367 431 425 18
25 40 53 49 62 21 21 156 201 194 259 38 58 40 61 103 166 29 49 57 96 62 104
12 21 109 218 126 258 8 17 20 47 28 65 7 17 21 49 30 70 9 21 16 46 16 55 0
10 5 23 11 29 6 6 14 26 19 44 4 19 13 48 18 64 11 30 32 106 57 200 8 28 21
86 30 130 9 44 21 100 26 125 6 25 15 83 19 130 5 47 14 126 21 175 13 107 7
499 -11 625 -13 94 -36 224 -52 285 -5 22 -13 58 -17 80 -4 22 -12 56 -19 75
-6 19 -18 62 -28 95 -17 60 -28 95 -58 173 -9 23 -23 61 -32 85 -9 23 -22 56
-29 72 -67 152 -136 293 -166 340 -10 17 -23 40 -29 53 -14 32 -174 275 -229
347 -145 192 -337 401 -522 567 -262 236 -646 467 -999 603 -25 9 -60 23 -78
31 -18 8 -41 14 -52 14 -10 0 -21 4 -25 9 -3 5 -20 12 -38 16 -31 7 -77 20
-176 50 -27 8 -60 15 -74 15 -13 0 -44 7 -67 15 -23 8 -56 15 -74 15 -17 0
-64 7 -106 14 -165 32 -450 42 -695 24z m275 -556 c0 -100 -3 -114 -23 -106
-8 3 -11 32 -9 92 3 96 6 112 22 112 6 0 10 -37 10 -98z m-252 57 c46 -74 83
-153 77 -167 -6 -15 -9 -14 -25 6 -26 32 -77 30 -90 -3 -14 -36 -43 -34 -36 3
3 15 8 47 12 71 7 50 30 111 42 111 4 0 13 -9 20 -21z m492 2 c0 -10 -5 -42
-10 -71 -9 -49 -8 -56 12 -77 12 -13 25 -23 29 -23 20 0 38 35 49 93 14 77 24
97 41 80 9 -9 7 -30 -7 -89 -26 -114 -59 -137 -132 -92 l-35 21 6 68 c6 69 20
109 37 109 6 0 10 -8 10 -19z m364 -121 c4 -31 12 -50 20 -50 12 0 38 42 50
83 7 23 26 12 26 -15 0 -12 -9 -51 -21 -87 -12 -36 -23 -72 -25 -78 -6 -24
-34 -13 -40 15 -10 47 -37 103 -48 99 -6 -2 -15 -23 -21 -48 -7 -28 -17 -45
-28 -47 -28 -6 -26 6 39 197 9 28 41 -18 48 -69z m-1296 -19 c21 -81 37 -98
77 -79 22 10 28 9 35 -2 12 -20 3 -26 -55 -38 -57 -12 -64 -8 -76 45 -26 119
-29 139 -24 152 10 25 24 -1 43 -78z m-253 -24 c58 -63 115 -135 115 -146 0
-16 -25 -14 -40 4 -7 8 -25 15 -41 15 -24 0 -30 -6 -40 -40 -12 -38 -29 -54
-29 -27 0 6 -5 55 -10 107 -7 71 -6 96 3 102 17 11 20 10 42 -15z m1930 -31
c34 -34 40 -67 18 -111 -20 -42 -80 -81 -110 -71 -45 16 -68 47 -68 93 0 39 5
49 37 79 46 42 88 45 123 10z m-2173 -109 c21 -28 49 -65 63 -81 42 -49 27
-67 -32 -37 -21 11 -50 23 -65 27 -24 5 -28 3 -28 -14 0 -11 7 -25 15 -32 18
-15 21 -64 3 -58 -7 3 -23 24 -36 49 -12 24 -32 59 -42 77 -37 62 -17 76 47
36 50 -31 69 -8 32 40 -18 23 -19 46 -1 46 4 0 24 -24 44 -53z m2428 -53 c0
-47 3 -54 19 -54 11 0 36 9 55 21 31 18 37 19 42 6 5 -14 -20 -59 -54 -95 -7
-8 -19 -27 -27 -43 -9 -16 -19 -29 -24 -29 -16 0 -22 33 -8 49 8 9 17 24 20
33 5 15 1 16 -23 11 -27 -5 -30 -3 -30 20 0 40 -16 40 -48 1 -21 -25 -36 -35
-47 -30 -18 6 -7 25 86 149 28 37 39 26 39 -39z m-1276 -14 c17 -36 23 -40 58
-40 45 0 47 -8 13 -40 -19 -18 -25 -34 -25 -67 0 -46 -16 -57 -40 -28 -18 21
-37 19 -67 -9 -15 -14 -30 -23 -35 -20 -5 3 -6 27 -2 54 6 43 4 50 -19 71 -30
26 -27 39 10 39 31 0 63 26 63 50 0 17 8 30 19 30 3 0 15 -18 25 -40z m-1449
-48 c26 -19 115 -132 115 -146 0 -20 -12 -20 -80 3 -30 10 -58 17 -62 14 -17
-9 -7 -35 25 -62 29 -27 30 -30 13 -37 -21 -8 -36 7 -103 104 -44 63 -37 82
22 58 40 -17 85 -21 85 -8 0 5 -11 19 -25 32 -14 13 -25 29 -25 37 0 14 19 17
35 5z m1885 -83 c0 -22 5 -29 19 -29 30 0 34 -17 11 -42 -20 -22 -21 -22 -73
-5 -28 9 -61 18 -72 19 -11 2 -21 12 -23 22 -4 17 1 18 33 13 30 -5 41 -2 61
18 13 13 24 29 24 35 0 6 5 8 10 5 6 -3 10 -19 10 -36z m1137 18 c4 -8 23 -24
41 -37 17 -13 32 -27 32 -32 0 -15 -31 -8 -57 12 -19 15 -30 17 -44 9 -21 -11
-15 -33 15 -59 9 -7 16 -16 16 -21 0 -15 -37 -10 -50 6 -15 18 -51 16 -58 -3
-2 -7 12 -27 32 -46 37 -33 46 -56 23 -56 -13 0 -107 82 -107 93 0 2 12 17 26
33 112 123 116 126 131 101z m-2017 -22 c19 -20 32 -24 64 -22 67 4 51 -22
-29 -48 l-70 -23 -22 21 c-29 26 -29 31 3 45 19 9 24 17 19 32 -9 27 7 25 35
-5z m-335 -111 c15 -25 25 -47 23 -48 -29 -21 -82 -45 -89 -41 -15 10 -10 62
6 69 8 3 15 16 15 29 0 20 7 37 16 37 1 0 14 -21 29 -46z m1555 21 c0 -9 8
-18 18 -22 35 -12 41 -23 31 -52 l-10 -28 -35 17 c-60 31 -64 37 -47 70 15 32
43 41 43 15z m-2422 -58 c20 -20 35 -48 39 -70 5 -31 1 -40 -25 -67 -34 -34
-57 -37 -104 -14 -66 31 -87 110 -43 158 36 39 91 36 133 -7z m3456 -51 c-1
-21 -7 -49 -15 -62 -11 -21 -11 -27 0 -33 14 -9 44 -5 77 11 25 12 56 8 61 -7
3 -11 -27 -52 -89 -120 -27 -30 -40 -37 -48 -29 -9 9 -4 20 19 47 28 31 41 67
25 67 -4 0 -28 -12 -55 -27 -56 -30 -71 -25 -46 18 36 63 13 90 -37 44 -28
-26 -56 -33 -56 -14 0 5 21 29 46 52 26 23 59 54 73 69 33 35 46 30 45 -16z
m-2871 -63 c-3 -8 -22 -25 -41 -38 -33 -23 -37 -23 -54 -8 -10 9 -18 27 -18
40 0 20 3 22 19 14 25 -14 31 -5 20 32 -5 18 -9 33 -9 35 0 2 20 -11 44 -29
28 -20 42 -37 39 -46z m2164 50 c-2 -23 2 -28 20 -28 34 0 37 -11 13 -49 -12
-20 -23 -36 -25 -36 -9 0 -95 62 -95 69 0 6 79 71 86 71 2 0 2 -12 1 -27z
m-3005 -136 c26 -23 60 -52 75 -64 25 -19 26 -23 13 -37 -13 -13 -20 -10 -61
27 -26 23 -61 54 -78 69 -17 14 -31 31 -31 37 0 23 37 9 82 -32z m4018 -116
c14 -18 33 -42 43 -53 19 -23 23 -48 7 -48 -6 0 -13 7 -17 16 -3 9 -15 19 -27
23 -16 7 -35 -3 -88 -46 -60 -49 -88 -59 -88 -33 0 5 28 30 63 56 34 26 66 51
71 55 5 5 2 19 -8 34 -20 31 -13 72 7 44 7 -9 23 -30 37 -48z m-4208 -3 c-25
-25 -13 -55 36 -90 26 -19 55 -37 65 -41 21 -8 23 -37 1 -37 -9 0 -41 18 -73
40 -65 46 -92 50 -114 18 -12 -18 -18 -20 -27 -11 -13 12 -3 29 69 114 24 28
37 37 45 29 7 -7 6 -14 -2 -22z m3472 -29 c-7 -11 -34 -12 -34 -1 0 14 11 21
26 15 8 -3 11 -9 8 -14z m-2774 -5 c0 -9 -5 -14 -12 -12 -18 6 -21 28 -4 28 9
0 16 -7 16 -16z m1445 -76 c2 -13 6 -34 7 -47 3 -22 8 -25 50 -26 26 0 50 -4
55 -9 10 -10 10 -202 0 -212 -5 -5 -29 -9 -55 -9 l-47 -1 -3 -47 -3 -46 48 -3
c48 -3 48 -3 51 -41 4 -49 -12 -69 -55 -65 -18 1 -38 -3 -44 -9 -25 -25 3 -33
109 -33 152 0 154 -1 150 -64 l-3 -51 -127 0 c-100 0 -129 -3 -133 -14 -8 -20
1 -25 40 -23 52 4 75 -12 75 -52 0 -42 -14 -54 -70 -58 l-44 -3 2 -65 c3 -85
-5 -95 -68 -93 -28 0 -54 4 -58 8 -4 4 -8 39 -9 78 l-1 72 -34 3 c-72 6 -78 9
-78 52 0 45 18 60 74 60 30 0 36 4 36 21 0 17 -4 20 -22 16 -34 -9 -214 -10
-227 -3 -6 4 -11 29 -11 56 0 36 4 49 17 54 10 4 66 6 126 5 106 -1 137 6 123
30 -4 6 -23 11 -42 11 -56 0 -74 15 -74 59 0 44 10 51 71 51 l39 0 0 50 0 49
-57 3 -58 3 -3 96 c-3 116 7 134 70 126 42 -6 54 5 49 41 -4 38 16 52 75 52
47 0 54 -3 59 -22z m-1745 -67 c0 -5 10 -11 23 -13 14 -2 23 -11 25 -25 5 -36
-23 -28 -47 12 -11 19 -16 35 -11 35 6 0 10 -4 10 -9z m3360 0 c0 -16 -41 -61
-51 -56 -15 10 -10 45 6 45 8 0 15 5 15 10 0 6 7 10 15 10 8 0 15 -4 15 -9z
m-2162 -13 c16 -16 15 -38 -3 -92 -13 -37 -13 -49 -3 -65 16 -26 -3 -84 -40
-124 -21 -22 -32 -26 -58 -21 -29 5 -32 3 -38 -26 -9 -48 -7 -90 4 -90 6 0 10
4 10 8 0 5 18 28 40 51 34 35 43 41 55 31 22 -18 18 -69 -8 -119 -23 -43 -23
-43 -5 -81 17 -34 18 -44 7 -82 -19 -65 -29 -75 -51 -48 -18 22 -18 22 -18 1
0 -12 4 -21 9 -21 5 0 13 -9 16 -21 4 -13 12 -18 22 -15 48 19 61 18 68 -5 5
-15 2 -26 -9 -34 -22 -17 -20 -24 15 -61 17 -18 28 -37 25 -43 -12 -19 -52
-12 -80 14 -33 30 -34 30 -63 3 -19 -18 -27 -20 -48 -10 -23 11 -36 42 -17 42
5 0 18 9 31 21 l22 21 -20 22 c-12 12 -21 26 -21 30 0 4 -9 19 -20 33 -17 21
-21 23 -26 9 -3 -9 -11 -16 -18 -16 -19 0 -106 91 -113 119 -3 14 -9 31 -13
36 -4 6 -11 24 -14 41 -8 36 9 56 41 48 23 -6 80 -80 94 -122 6 -18 7 -7 2 33
-7 68 -7 67 6 154 9 60 8 65 -12 82 -24 19 -34 10 -19 -18 6 -10 13 -39 17
-65 6 -40 4 -49 -10 -54 -25 -10 -81 50 -100 108 -17 52 -24 123 -13 133 12
12 56 -7 66 -28 9 -19 11 -15 11 26 2 88 65 64 81 -31 9 -54 11 -41 13 103 2
75 5 90 19 93 31 6 53 -45 54 -126 1 -40 4 -75 6 -78 3 -2 13 7 22 21 15 23
15 27 0 50 -31 48 16 172 67 175 3 0 10 -5 17 -12z m1009 -10 c13 -12 23 -27
23 -34 0 -6 7 -25 15 -40 19 -37 19 -69 -1 -88 -14 -15 -14 -18 4 -41 l20 -25
4 86 c4 69 8 89 25 106 14 13 28 18 39 14 15 -6 16 -17 12 -90 -3 -46 -3 -97
0 -112 5 -25 7 -22 16 25 12 60 34 83 60 62 10 -8 16 -30 17 -55 0 -40 0 -41
16 -18 9 13 26 22 40 22 23 0 25 -3 20 -37 -11 -78 -29 -129 -58 -161 -45 -50
-65 -40 -61 32 2 43 -1 57 -10 53 -7 -2 -12 -17 -11 -33 1 -16 4 -78 5 -137 1
-60 5 -98 9 -85 25 94 129 172 129 97 0 -61 -30 -126 -80 -173 -27 -25 -52
-46 -56 -46 -4 0 -13 8 -20 18 -13 16 -13 16 -14 -1 0 -10 -7 -20 -15 -23 -8
-4 -15 -11 -15 -17 0 -6 -10 -21 -21 -33 l-21 -23 32 -30 c28 -25 31 -32 20
-45 -17 -22 -46 -20 -70 4 -26 26 -32 25 -60 -5 -24 -25 -64 -33 -75 -15 -4 6
7 24 24 41 34 34 39 54 16 63 -20 7 -19 45 1 53 8 3 20 1 27 -6 18 -18 44 -13
61 14 20 30 22 55 4 37 -20 -20 -37 -14 -53 18 -20 40 -19 93 4 121 18 23 18
24 -6 66 -28 51 -29 116 -1 121 9 2 35 -16 58 -39 22 -23 43 -39 46 -37 2 3 2
30 -2 60 l-6 55 -29 -10 c-25 -10 -32 -8 -57 16 -30 29 -59 98 -48 115 3 5 18
8 33 5 25 -3 26 -2 8 7 -33 18 -62 100 -51 145 8 31 23 32 53 3z m1719 -53
c-14 -18 -32 -39 -39 -47 -18 -18 -27 -57 -15 -64 5 -3 17 1 27 10 10 9 21 16
24 16 4 0 25 11 47 25 48 30 60 31 60 5 0 -11 -5 -20 -11 -20 -6 0 -45 -20
-86 -45 -40 -25 -77 -45 -82 -45 -4 0 -16 15 -26 34 l-19 34 39 49 c70 88 100
116 103 98 2 -9 -8 -31 -22 -50z m-4421 -42 c96 -21 95 -21 95 -33 0 -5 -17
-10 -37 -10 -20 0 -45 -7 -55 -17 -19 -17 -25 -68 -8 -78 12 -7 14 -45 3 -45
-10 0 -89 82 -132 138 -57 73 -31 82 134 45z m4005 -47 c0 -13 7 -29 15 -36
21 -17 19 -33 -9 -59 l-24 -22 -31 50 c-17 28 -32 54 -32 59 -2 9 64 41 74 35
4 -2 7 -15 7 -27z m-3576 -6 c4 -4 -3 -23 -15 -41 -57 -79 -72 -86 -91 -43
-10 22 -9 27 5 35 12 7 15 18 10 40 l-6 31 44 -7 c24 -4 48 -11 53 -15z m4232
-173 c4 -12 13 -27 20 -35 16 -16 18 -38 4 -47 -6 -3 -14 4 -19 17 -5 13 -18
31 -29 41 -16 15 -24 16 -41 7 -25 -13 -27 -42 -6 -60 17 -14 20 -36 5 -45 -6
-3 -13 2 -17 11 -11 30 -36 54 -56 54 -28 0 -32 -30 -10 -71 17 -32 19 -40 7
-49 -16 -14 -34 -5 -34 16 0 8 -11 31 -24 52 -29 46 -23 56 54 95 30 15 66 36
80 47 23 17 26 17 42 3 10 -9 20 -25 24 -36z m-4904 -11 c15 -8 40 -17 57 -21
17 -4 33 -11 36 -16 4 -5 17 -9 30 -9 59 0 25 -45 -42 -56 -47 -7 -107 -40
-99 -53 3 -5 25 -12 50 -15 55 -9 86 -29 69 -47 -12 -12 -50 -2 -126 37 -16 8
-35 14 -42 14 -8 0 -25 4 -39 10 -35 13 -24 36 22 45 60 11 132 39 132 51 0 7
-19 15 -42 19 -54 9 -78 22 -78 40 0 19 37 19 72 1z m4382 -82 c22 -9 10 -24
-20 -24 -23 0 -24 -3 -24 -55 0 -53 -11 -72 -24 -39 -14 37 -6 79 21 101 30
26 26 25 47 17z m194 -88 c-2 -31 -8 -51 -17 -54 -10 -3 -13 2 -9 22 3 15 2
29 -3 32 -5 2 -6 18 -2 34 5 26 2 30 -16 30 -23 0 -29 16 -8 23 6 2 22 -5 35
-16 19 -18 22 -30 20 -71z m-4275 70 c21 -16 22 -55 2 -62 -8 -4 -15 -11 -15
-17 0 -13 -30 -47 -42 -47 -17 0 -7 29 15 47 31 24 44 71 22 79 -9 4 -22 -1
-30 -12 -8 -11 -15 -14 -15 -8 0 13 21 34 35 34 5 0 18 -7 28 -14z m150 -4
c-1 -5 1 -32 6 -60 6 -41 5 -52 -6 -57 -8 -3 -19 -3 -24 1 -10 6 -12 117 -2
128 9 9 28 1 26 -12z m3975 -49 c3 -34 -2 -46 -24 -67 -15 -14 -32 -22 -38
-19 -5 4 0 13 12 21 18 12 22 24 22 64 0 62 23 62 28 1z m-4240 -713 c13 0 15
-108 3 -165 l-6 -30 -150 -5 -150 -5 0 -85 0 -85 115 -5 115 -5 -4 -80 c-2
-44 -8 -86 -13 -92 -7 -9 -43 -13 -114 -13 l-104 0 0 -145 c0 -106 4 -155 15
-181 26 -63 14 -71 -119 -72 l-116 0 0 28 c0 16 5 32 10 35 14 9 14 840 -1
866 -22 43 -14 44 252 41 140 -1 260 -2 267 -2z m411 -20 c8 -12 21 -52 28
-89 7 -36 19 -96 28 -133 8 -38 21 -97 29 -132 7 -34 16 -68 19 -73 3 -5 11
-34 16 -64 6 -30 17 -83 25 -119 8 -36 20 -87 26 -115 16 -70 41 -157 51 -177
19 -37 3 -43 -115 -43 -63 0 -117 3 -121 6 -12 12 -35 114 -35 155 0 22 -5 45
-12 52 -14 14 -132 16 -157 2 -15 -7 -20 -27 -25 -97 -11 -131 -5 -123 -95
-123 -90 0 -115 15 -92 53 15 24 29 81 86 362 20 103 41 201 60 280 9 39 20
97 26 130 9 62 35 136 49 145 4 3 50 5 101 4 85 -1 94 -3 108 -24z m701 14
c105 -36 161 -110 168 -220 2 -39 1 -74 -4 -76 -5 -3 -49 -3 -99 1 l-90 6 -3
37 c-6 67 -80 98 -126 52 -14 -13 -16 -53 -16 -277 0 -290 3 -307 59 -307 37
0 61 29 68 79 3 22 11 45 18 51 8 6 50 10 102 8 l88 -3 3 -72 c4 -109 -35
-172 -145 -229 -65 -34 -72 -36 -148 -32 -118 7 -195 52 -244 144 -20 37 -21
55 -21 352 0 291 1 316 20 357 24 52 87 108 144 128 56 20 171 20 226 1z m813
-26 c-1 -18 -5 -62 -10 -98 l-8 -65 -147 -3 c-104 -2 -147 -6 -150 -15 -2 -6
-2 -47 0 -89 l4 -78 102 0 c57 0 105 -2 107 -4 2 -2 2 -44 -1 -93 l-5 -88
-105 0 c-93 -1 -105 -3 -104 -18 0 -9 1 -54 2 -99 l2 -83 140 3 140 4 10 -27
c5 -14 10 -47 10 -71 0 -25 4 -53 9 -63 22 -41 6 -43 -265 -42 -143 0 -261 1
-264 1 -3 0 -4 965 0 965 0 0 120 -1 267 -2 l268 -2 -2 -33z m830 16 c-2 -10
-3 -178 -3 -373 0 -351 0 -355 22 -378 39 -41 103 -24 127 35 8 20 11 121 8
363 -2 183 -5 343 -8 354 -4 19 1 20 138 18 150 -2 177 -9 189 -45 3 -13 20
-52 37 -88 16 -36 35 -78 42 -95 8 -16 27 -59 44 -95 16 -36 38 -84 47 -107
10 -24 20 -41 22 -38 3 3 5 99 5 214 0 154 -3 214 -12 225 -23 28 -2 36 98 36
89 0 99 -2 104 -19 3 -11 -1 -32 -9 -47 -11 -21 -14 -109 -14 -458 0 -323 -3
-435 -12 -444 -18 -18 -153 -16 -172 3 -16 17 -196 375 -196 392 0 5 -8 17
-18 26 -18 17 -19 11 -16 -170 1 -104 3 -204 5 -223 4 -34 3 -35 -36 -38 -22
-1 -65 1 -95 6 -51 7 -55 10 -53 34 l1 26 -26 -25 c-47 -44 -91 -58 -177 -58
-98 0 -158 25 -206 85 -58 72 -61 90 -65 385 -2 149 -5 327 -7 397 l-2 128
120 -3 c112 -3 120 -5 118 -23z m1809 -15 c-2 -19 -5 -104 -5 -189 l-2 -155
65 -3 c35 -2 75 0 88 3 l25 6 -5 188 -4 188 117 0 c132 0 135 -2 118 -74 -13
-55 -12 -769 1 -828 6 -27 7 -51 3 -55 -4 -4 -61 -10 -125 -12 -105 -5 -118
-4 -123 12 -3 10 -1 29 5 44 5 15 10 97 10 182 l0 154 -90 0 -91 0 5 -162 c2
-90 6 -179 8 -198 l3 -35 -120 0 -120 0 3 35 c9 104 12 803 4 855 -5 33 -8 65
-5 71 3 8 40 11 121 9 l117 -2 -3 -34z m-514 22 c7 -4 17 -32 22 -62 5 -30 16
-85 25 -124 9 -38 22 -99 30 -135 25 -116 36 -164 47 -198 5 -19 14 -57 19
-85 13 -80 34 -169 47 -200 7 -16 12 -40 12 -54 0 -15 7 -34 16 -44 9 -10 14
-25 10 -34 -5 -13 -24 -15 -128 -13 l-123 3 -7 40 c-3 22 -12 71 -19 108 l-12
68 -81 -3 -81 -3 -8 -40 c-5 -22 -11 -67 -15 -100 -4 -33 -11 -66 -15 -72 -13
-20 -173 -18 -181 2 -6 18 2 45 15 45 5 0 9 11 9 24 0 13 6 46 14 72 8 27 19
74 25 104 6 30 18 87 26 125 9 39 20 95 25 125 5 30 14 71 19 90 5 19 17 71
26 115 9 44 21 98 27 120 5 22 13 56 17 76 4 19 11 41 15 47 8 14 203 17 224
3z m-1801 -302 c52 -109 41 -99 110 -99 34 0 64 -4 67 -9 6 -9 -35 -54 -73
-79 -20 -14 -22 -21 -16 -56 18 -105 18 -106 2 -106 -8 0 -20 7 -27 15 -7 8
-27 24 -44 35 -32 19 -33 19 -71 0 -20 -10 -46 -26 -56 -36 -21 -18 -42 -10
-35 14 2 10 7 38 11 64 6 46 5 47 -44 94 -28 26 -48 51 -45 56 3 4 34 8 69 8
l65 0 20 40 c11 21 20 48 20 58 0 40 28 40 47 1z m1446 -1003 c3 -8 -3 -24
-14 -37 -10 -12 -19 -26 -19 -31 0 -5 -4 -14 -10 -21 -5 -7 -40 -52 -77 -102
-88 -118 -197 -227 -308 -309 -49 -37 -94 -70 -100 -74 -58 -44 -282 -157
-370 -187 -27 -9 -58 -21 -68 -26 -10 -6 -37 -14 -60 -19 -23 -5 -62 -13 -87
-19 -159 -34 -355 -48 -470 -32 -207 27 -246 34 -255 41 -5 4 -31 11 -57 14
-26 4 -50 11 -53 15 -2 5 -21 12 -41 16 -20 3 -44 10 -53 14 -9 5 -32 15 -51
23 -93 41 -199 95 -235 119 -22 15 -65 43 -95 62 -30 20 -64 44 -75 54 -11 10
-43 36 -70 58 -66 53 -162 148 -211 210 -21 27 -47 59 -56 69 -19 21 -98 150
-98 160 0 3 654 7 1453 9 798 1 1457 3 1463 5 7 1 14 -4 17 -12z m-3655 -308
c2 -21 -1 -38 -5 -38 -5 0 -18 -6 -29 -14 -18 -14 -18 -15 9 -25 38 -15 26
-31 -21 -28 -49 3 -53 27 -11 65 23 20 30 34 26 46 -5 11 -13 16 -23 12 -19
-7 -37 2 -28 15 3 6 22 9 42 7 35 -3 37 -5 40 -40z m204 18 c4 -6 8 -32 8 -58
0 -37 -4 -50 -19 -58 -30 -15 -52 -12 -78 12 -51 48 -15 136 50 122 18 -3 35
-12 39 -18z m208 14 c0 -6 -4 -18 -9 -28 -4 -9 -18 -39 -30 -66 -17 -37 -25
-46 -34 -37 -9 9 -9 16 1 29 25 35 33 64 21 78 -6 8 -15 11 -21 8 -13 -9 -40
4 -33 16 8 13 105 13 105 0z m3650 -25 c26 -41 43 -41 50 1 3 16 10 28 15 27
13 -4 13 -132 0 -135 -5 -1 -19 13 -30 30 -24 37 -38 36 -45 -4 -8 -47 -25
-29 -28 32 -3 53 1 84 12 84 2 0 14 -16 26 -35z m202 29 c4 -3 0 -17 -8 -32
-29 -56 -4 -110 38 -83 23 14 33 9 25 -13 -3 -8 -19 -14 -41 -14 -30 0 -38 5
-51 31 -18 37 -18 36 0 81 15 34 25 43 37 30z m246 -10 c20 -14 23 -23 20 -67
-3 -46 -6 -53 -31 -61 -68 -24 -115 75 -61 128 20 20 44 20 72 0z m-193 -3
c10 -17 -12 -21 -25 -6 -10 12 -10 15 3 15 9 0 18 -4 22 -9z m-284 -313 c-10
-16 -10 -23 -2 -26 16 -5 14 -59 -3 -65 -15 -6 -96 28 -96 41 0 4 16 31 37 60
l36 53 21 -21 c18 -18 19 -23 7 -42z m-3623 7 c35 -48 40 -65 18 -65 -8 0 -31
-9 -50 -21 l-35 -21 -7 28 c-5 19 -2 30 10 39 20 15 21 35 2 35 -22 0 -30 19
-16 35 21 25 44 16 78 -30z m4019 -42 c3 -7 -7 -17 -21 -23 -19 -7 -26 -17
-26 -35 0 -39 26 -41 75 -6 24 17 54 31 67 31 31 0 68 -34 68 -64 0 -30 -40
-76 -67 -76 -29 0 -38 17 -14 25 10 3 27 15 37 26 17 19 17 20 -4 41 l-22 22
-27 -22 c-16 -12 -43 -29 -61 -37 -30 -13 -36 -13 -58 1 -24 17 -29 29 -25 74
3 44 67 78 78 43z m-4427 -36 c0 -8 -27 -35 -60 -61 -66 -51 -79 -70 -63 -95
19 -30 56 -24 120 19 63 42 83 48 83 28 0 -15 -114 -102 -147 -112 -31 -10
-76 16 -97 57 -24 44 -17 55 70 123 71 54 94 64 94 41z m546 -128 c8 -14 -11
-33 -25 -25 -11 7 -4 36 9 36 5 0 12 -5 16 -11z m3302 -9 c11 -18 10 -20 -8
-20 -13 0 -20 7 -20 20 0 11 3 20 8 20 4 0 13 -9 20 -20z m459 -101 c15 -6 51
-14 78 -18 35 -4 50 -11 50 -21 0 -11 -10 -14 -38 -13 -46 3 -77 -21 -77 -59
0 -16 5 -28 10 -28 6 0 10 -7 10 -15 0 -36 -38 -10 -90 60 -30 41 -58 74 -62
75 -5 0 -8 7 -8 15 0 18 83 21 127 4z m-4089 -31 c15 -15 16 -54 2 -63 -12 -7
-14 -85 -2 -85 5 0 21 14 37 30 16 17 35 30 42 30 25 0 13 -30 -29 -67 -22
-21 -54 -50 -70 -65 -16 -16 -34 -28 -39 -28 -13 0 -3 100 14 137 7 16 7 27 0
34 -7 7 -25 -2 -58 -31 -45 -39 -70 -47 -70 -22 0 11 142 139 156 141 3 1 10
-4 17 -11z m595 -64 c8 -8 -3 -34 -14 -34 -5 0 -9 9 -9 20 0 19 11 26 23 14z
m1837 -16 c0 -16 -3 -19 -11 -11 -6 6 -8 16 -5 22 11 17 16 13 16 -11z m920
-4 c0 -8 -4 -14 -10 -14 -5 0 -10 9 -10 21 0 11 5 17 10 14 6 -3 10 -13 10
-21z m558 -70 c50 -53 62 -72 62 -98 0 -36 -24 -64 -56 -67 -58 -6 -67 0 -144
84 -33 37 -41 50 -31 60 9 9 25 -3 70 -52 48 -52 63 -62 86 -59 18 2 31 11 36
25 7 18 -2 33 -52 88 -52 58 -65 85 -41 85 4 0 36 -30 70 -66z m-2999 -65 c63
-33 70 -46 36 -74 -29 -26 -45 -25 -45 3 0 9 -16 30 -35 45 -19 15 -35 32 -35
37 0 16 37 11 79 -11z m2185 13 c3 -5 -11 -24 -30 -43 -20 -19 -40 -45 -46
-59 -9 -24 -10 -24 -20 -5 -7 11 -19 25 -27 32 -18 13 -20 11 39 51 45 31 74
39 84 24z m-2864 -28 c0 -8 -22 -45 -50 -81 -27 -36 -50 -69 -50 -73 0 -11
-30 -21 -41 -15 -4 3 21 44 56 92 36 47 65 90 65 95 0 5 5 6 10 3 6 -3 10 -13
10 -21z m95 -64 c4 -6 -2 -30 -13 -53 -29 -61 -34 -84 -22 -92 6 -4 22 2 34
14 12 12 30 21 39 21 9 0 17 4 17 8 0 15 48 33 56 21 4 -6 2 -14 -3 -18 -119
-80 -152 -101 -161 -101 -6 0 -12 -5 -14 -12 -3 -7 -12 -9 -22 -5 -21 8 -17
34 15 104 10 23 19 44 19 46 0 3 7 21 15 41 15 36 28 45 40 26z m3333 -20 c13
-13 22 -33 22 -51 0 -16 6 -31 13 -33 54 -14 72 -24 75 -39 4 -21 -16 -22 -54
-2 -37 19 -58 19 -74 0 -11 -13 -8 -21 15 -45 19 -20 26 -33 19 -40 -10 -10
-63 35 -140 119 l-37 42 22 20 c24 22 77 48 102 49 8 0 25 -9 37 -20z m-1668
-88 c0 -27 52 -62 91 -62 46 0 49 -10 11 -42 -38 -31 -43 -49 -33 -105 5 -26
7 -51 4 -56 -2 -4 -19 1 -37 13 -45 27 -85 25 -127 -6 l-34 -25 -3 25 c-2 14
2 34 7 45 18 33 13 56 -26 100 -40 47 -35 61 23 61 37 0 61 24 75 76 l11 38
19 -25 c10 -13 19 -30 19 -37z m-775 23 c0 -22 -14 -28 -34 -16 -12 8 -13 12
-1 26 16 20 35 14 35 -10z m1535 0 c0 -19 -20 -29 -32 -17 -8 8 -7 16 2 26 14
17 30 12 30 -9z m-1294 -121 c-5 -13 -10 -14 -18 -6 -6 6 -8 18 -4 28 5 13 10
14 18 6 6 -6 8 -18 4 -28z m-863 16 c7 -5 27 -21 45 -36 25 -20 32 -33 32 -60
0 -47 -25 -94 -50 -94 -23 0 -25 17 -5 44 30 39 12 106 -28 105 -15 0 -32 -16
-54 -51 -18 -28 -33 -56 -33 -63 0 -13 53 -57 83 -68 19 -7 23 -27 5 -27 -9 0
-135 65 -147 76 -2 2 10 20 25 41 35 46 49 68 71 111 17 33 34 40 56 22z
m1907 -6 c0 -17 -22 -14 -28 4 -2 7 3 12 12 12 9 0 16 -7 16 -16z m907 1 c37
-26 63 -79 63 -128 0 -43 -3 -47 -47 -76 -55 -37 -60 -37 -69 -9 -3 12 -11 26
-16 32 -31 37 -85 132 -81 143 7 19 73 52 103 53 14 0 35 -7 47 -15z m-289
-127 c23 -30 102 -190 97 -199 -13 -20 -26 -7 -56 54 -16 34 -39 76 -49 92
-29 46 -22 90 8 53z m-2187 -50 c33 -19 39 -27 39 -56 0 -25 -8 -41 -30 -60
-25 -22 -30 -34 -30 -74 0 -27 -4 -48 -10 -48 -16 0 -31 38 -24 64 3 15 -1 34
-12 50 l-17 27 -23 -22 c-13 -13 -24 -30 -24 -40 0 -22 -18 -35 -31 -22 -9 9
-1 38 20 73 17 26 41 83 41 95 0 17 22 35 43 35 11 0 37 -10 58 -22z m2043
-66 c11 -26 33 -68 49 -94 26 -44 29 -68 7 -68 -4 0 -31 16 -60 35 -80 54 -98
45 -60 -30 19 -38 14 -65 -9 -51 -14 9 -61 108 -61 127 0 8 -7 25 -16 38 -11
16 -13 26 -6 33 7 7 28 -1 68 -26 70 -43 85 -36 55 26 -26 54 -26 58 -3 58 11
0 24 -16 36 -48z m-1809 -64 c-4 -18 -14 -57 -23 -85 -15 -50 -14 -54 3 -73
36 -40 63 -17 90 75 9 33 19 66 21 73 2 8 10 12 17 9 26 -9 -6 -141 -46 -184
-26 -29 -66 -29 -101 -2 -21 17 -26 29 -26 65 0 24 6 61 14 81 8 21 17 46 20
56 3 9 13 17 21 17 13 0 15 -7 10 -32z m1459 -22 c41 -17 66 -67 66 -133 0
-59 -7 -71 -48 -82 -52 -15 -84 -1 -109 49 -22 43 -30 114 -15 136 6 9 59 42
70 44 1 0 17 -6 36 -14z m-1059 -60 c33 -33 40 -70 25 -119 -26 -81 -78 -108
-135 -71 -68 45 -24 214 56 214 18 0 39 -10 54 -24z m768 -28 c2 -24 10 -69
16 -101 13 -60 9 -93 -9 -82 -5 3 -10 16 -10 27 0 31 -29 58 -60 58 -39 0 -53
-21 -45 -70 6 -35 4 -40 -13 -40 -16 0 -20 11 -29 93 -6 50 -14 99 -17 108 -5
11 -1 19 10 23 22 8 34 -10 34 -52 0 -33 0 -33 43 -30 l42 3 3 53 c4 66 28 73
35 10z m-357 -33 c12 -12 12 -18 2 -35 -11 -18 -10 -23 6 -32 14 -8 15 -12 6
-18 -26 -16 -40 1 -40 51 0 53 3 57 26 34z m-106 -74 c0 -15 -16 -22 -34 -15
-25 9 -19 24 9 24 14 0 25 -4 25 -9z"/>
<path d="M4256 7253 c-8 -21 7 -36 30 -31 26 5 24 29 -3 39 -16 6 -23 3 -27
-8z"/>
<path d="M3584 7096 c-7 -19 3 -36 22 -36 10 0 14 8 12 22 -4 26 -26 36 -34
14z"/>
<path d="M5429 7101 c-33 -34 -37 -70 -11 -94 39 -35 86 -11 98 50 5 24 1 36
-15 52 -28 28 -37 27 -72 -8z"/>
<path d="M2750 6661 c-23 -44 1 -94 50 -106 35 -8 65 24 56 59 -14 56 -84 87
-106 47z"/>
<path d="M3870 5580 c0 -11 5 -20 10 -20 6 0 10 9 10 20 0 11 -4 20 -10 20 -5
0 -10 -9 -10 -20z"/>
<path d="M5090 5581 c0 -17 5 -31 10 -31 6 0 10 11 10 24 0 14 -4 28 -10 31
-6 4 -10 -7 -10 -24z"/>
<path d="M2233 6044 c-15 -7 4 -64 22 -64 25 0 35 25 19 48 -15 22 -20 24 -41
16z"/>
<path d="M2532 4483 c-19 -38 -22 -71 -7 -77 30 -11 47 5 41 37 -3 16 -6 36
-6 43 0 20 -18 17 -28 -3z"/>
<path d="M6175 4515 c-3 -17 -10 -45 -16 -63 -13 -40 -2 -57 29 -47 19 5 20
12 15 58 -8 69 -19 91 -28 52z"/>
<path d="M4427 3507 l-27 -23 2 -334 3 -335 30 0 30 0 6 140 c3 77 7 142 8
145 1 3 6 -4 11 -16 4 -11 7 -69 5 -128 -2 -90 0 -110 15 -129 15 -19 21 -20
44 -9 l26 12 0 324 0 325 -33 25 c-42 32 -83 33 -120 3z m63 -284 c0 -56 -4
-92 -9 -85 -11 19 -12 182 -1 182 6 0 10 -42 10 -97z"/>
<path d="M3783 3503 c-7 -2 -13 -22 -13 -43 0 -52 17 -60 123 -60 62 0 88 -4
97 -15 20 -24 1 -35 -63 -35 -70 -1 -97 -15 -97 -53 0 -31 45 -70 71 -62 41
13 125 22 138 16 13 -8 8 -13 -64 -64 -31 -22 -32 -51 -3 -71 34 -24 70 -19
114 14 36 27 64 38 64 25 0 -3 -12 -24 -26 -46 -28 -45 -25 -54 23 -68 35 -10
55 -1 94 44 26 30 33 32 73 28 41 -5 46 -3 51 19 4 14 5 42 3 64 l-3 39 -60 6
c-75 7 -91 14 -137 57 -33 31 -37 42 -43 101 -12 112 -10 111 -183 110 -81 0
-153 -3 -159 -6z"/>
<path d="M4870 3488 c-16 -17 -20 -35 -20 -84 0 -57 -3 -66 -32 -97 -45 -47
-88 -67 -146 -67 -57 0 -72 -12 -72 -58 0 -57 14 -72 69 -72 42 0 50 -4 75
-35 15 -19 36 -37 46 -40 21 -7 90 19 90 33 0 5 -13 27 -30 50 -31 43 -24 69
10 36 69 -68 104 -73 153 -23 9 10 17 21 17 24 0 8 -39 45 -49 45 -4 0 -21 10
-36 22 -38 29 -17 38 68 27 78 -10 107 -2 126 35 13 23 12 28 -4 46 -15 16
-31 20 -86 20 -70 0 -84 6 -73 35 6 15 18 17 88 13 116 -7 146 7 146 68 0 41
-11 44 -182 44 -128 0 -139 -1 -158 -22z"/>
<path d="M2438 3353 c-14 -3 -18 -15 -18 -48 0 -36 4 -44 22 -48 42 -11 63 36
38 84 -11 19 -13 20 -42 12z"/>
<path d="M6758 3353 c-14 -3 -18 -15 -18 -48 0 -35 4 -44 22 -48 12 -3 25 -4
29 -2 13 9 19 54 9 79 -10 26 -12 27 -42 19z"/>
<path d="M6567 2713 c-4 -3 -7 -17 -7 -30 0 -19 5 -23 30 -23 17 0 30 4 30 8
0 14 -46 53 -53 45z"/>
<path d="M6098 2363 c-12 -3 -18 -14 -18 -33 0 -22 6 -29 27 -35 40 -10 69 35
41 63 -12 12 -20 13 -50 5z"/>
<path d="M5831 2176 c-12 -15 -5 -39 20 -70 66 -82 58 -77 84 -58 32 23 32 66
-1 109 -19 26 -32 33 -58 33 -19 0 -39 -6 -45 -14z"/>
<path d="M3380 2011 c-16 -30 4 -71 34 -71 26 0 52 32 41 50 -4 6 -19 17 -35
25 -27 14 -30 14 -40 -4z"/>
<path d="M5076 1838 c-20 -29 -20 -37 4 -92 16 -39 23 -46 48 -46 36 0 52 16
52 52 0 31 -25 88 -44 100 -20 14 -45 8 -60 -14z"/>
<path d="M4002 1797 c-30 -32 -32 -121 -2 -137 31 -17 67 12 75 60 14 84 -26
127 -73 77z"/>
</g>
</svg>
